<svg xmlns="http://www.w3.org/2000/svg" xmlns:xlink="http://www.w3.org/1999/xlink" width="500" zoomAndPan="magnify" viewBox="0 0 375 374.999991" height="500" preserveAspectRatio="xMidYMid meet" version="1.0"><defs><g/><clipPath id="cc9c9fecea"><path d="M 259 161 L 284 161 L 284 186 L 259 186 Z M 259 161 " clip-rule="nonzero"/></clipPath><clipPath id="4c9d0e6f34"><path d="M 254.59375 165.445312 L 271.667969 149.664062 L 295.082031 175 L 278.007812 190.78125 Z M 254.59375 165.445312 " clip-rule="nonzero"/></clipPath><clipPath id="21cd84dfb0"><path d="M 254.59375 165.445312 L 271.667969 149.664062 L 295.082031 175 L 278.007812 190.78125 Z M 254.59375 165.445312 " clip-rule="nonzero"/></clipPath><clipPath id="2559fb15ad"><path d="M 271 150 L 296 150 L 296 175 L 271 175 Z M 271 150 " clip-rule="nonzero"/></clipPath><clipPath id="f65b193ee3"><path d="M 266.683594 154.269531 L 283.757812 138.488281 L 307.175781 163.824219 L 290.101562 179.605469 Z M 266.683594 154.269531 " clip-rule="nonzero"/></clipPath><clipPath id="f0341b4c9d"><path d="M 266.683594 154.269531 L 283.757812 138.488281 L 307.175781 163.824219 L 290.101562 179.605469 Z M 266.683594 154.269531 " clip-rule="nonzero"/></clipPath></defs><g clip-path="url(#cc9c9fecea)"><g clip-path="url(#4c9d0e6f34)"><g clip-path="url(#21cd84dfb0)"><path fill="#1ed891" d="M 283.160156 162.65625 L 262.730469 161.746094 C 258.785156 161.574219 258.117188 169.261719 262.792969 169.386719 L 275.507812 169.730469 L 274.535156 182.523438 C 274.242188 186.417969 281.835938 186.832031 282.054688 182.871094 Z M 283.160156 162.65625 " fill-opacity="1" fill-rule="nonzero"/></g></g></g><g clip-path="url(#2559fb15ad)"><g clip-path="url(#f65b193ee3)"><g clip-path="url(#f0341b4c9d)"><path fill="#18cb96" d="M 295.253906 151.480469 L 274.824219 150.570312 C 270.878906 150.394531 270.210938 158.082031 274.886719 158.210938 L 287.601562 158.554688 L 286.628906 171.347656 C 286.332031 175.242188 293.929688 175.652344 294.148438 171.695312 Z M 295.253906 151.480469 " fill-opacity="1" fill-rule="nonzero"/></g></g></g><g fill="#ffffff" fill-opacity="1"><g transform="translate(81.11435, 208.885858)"><g><path d="M 20.125 -31.5625 C 22.96875 -31.5625 25.378906 -30.941406 27.359375 -29.703125 C 29.347656 -28.472656 30.867188 -26.757812 31.921875 -24.5625 C 32.972656 -22.375 33.5 -19.820312 33.5 -16.90625 L 33.5 -3.15625 C 33.5 -2.226562 33.207031 -1.46875 32.625 -0.875 C 32.039062 -0.289062 31.179688 0 30.046875 0 C 29.023438 0 28.191406 -0.289062 27.546875 -0.875 C 26.898438 -1.46875 26.578125 -2.226562 26.578125 -3.15625 L 26.578125 -17.03125 C 26.578125 -19.539062 25.976562 -21.578125 24.78125 -23.140625 C 23.582031 -24.703125 21.707031 -25.484375 19.15625 -25.484375 C 18.382812 -25.484375 17.484375 -25.3125 16.453125 -24.96875 C 15.421875 -24.625 14.414062 -24.066406 13.4375 -23.296875 C 12.46875 -22.523438 11.65625 -21.53125 11 -20.3125 C 10.351562 -19.09375 10.03125 -17.59375 10.03125 -15.8125 L 10.03125 -3.15625 C 10.03125 -2.226562 9.734375 -1.46875 9.140625 -0.875 C 8.554688 -0.289062 7.71875 0 6.625 0 C 5.53125 0 4.660156 -0.289062 4.015625 -0.875 C 3.367188 -1.46875 3.046875 -2.226562 3.046875 -3.15625 L 3.046875 -36.421875 C 3.046875 -37.359375 3.421875 -38.078125 4.171875 -38.578125 C 4.921875 -39.085938 5.71875 -39.34375 6.5625 -39.34375 C 7.457031 -39.34375 8.257812 -39.085938 8.96875 -38.578125 C 9.675781 -38.078125 10.03125 -37.359375 10.03125 -36.421875 L 10.03125 -28.15625 C 11.695312 -29.570312 13.421875 -30.492188 15.203125 -30.921875 C 16.984375 -31.347656 18.625 -31.5625 20.125 -31.5625 Z M 20.125 -31.5625 "/></g></g></g><g fill="#ffffff" fill-opacity="1"><g transform="translate(118.020241, 208.885858)"><g><path d="M 29.859375 -30.953125 C 30.910156 -30.953125 31.757812 -30.625 32.40625 -29.96875 C 33.0625 -29.320312 33.390625 -28.515625 33.390625 -27.546875 L 33.390625 -3.09375 C 33.390625 -2.082031 33.015625 -1.3125 32.265625 -0.78125 C 31.515625 -0.257812 30.734375 0 29.921875 0 C 29.023438 0 28.222656 -0.269531 27.515625 -0.8125 C 26.804688 -1.363281 26.453125 -2.144531 26.453125 -3.15625 L 26.453125 -3.40625 C 24.785156 -1.78125 23.0625 -0.703125 21.28125 -0.171875 C 19.5 0.347656 17.835938 0.609375 16.296875 0.609375 C 12.078125 0.609375 8.789062 -0.71875 6.4375 -3.375 C 4.09375 -6.03125 2.921875 -9.628906 2.921875 -14.171875 L 2.921875 -27.546875 C 2.921875 -28.484375 3.222656 -29.285156 3.828125 -29.953125 C 4.441406 -30.617188 5.296875 -30.953125 6.390625 -30.953125 C 7.441406 -30.953125 8.28125 -30.617188 8.90625 -29.953125 C 9.539062 -29.285156 9.859375 -28.484375 9.859375 -27.546875 L 9.859375 -14.046875 C 9.859375 -11.410156 10.453125 -9.320312 11.640625 -7.78125 C 12.835938 -6.238281 14.734375 -5.46875 17.328125 -5.46875 C 18.097656 -5.46875 19 -5.679688 20.03125 -6.109375 C 21.070312 -6.535156 22.078125 -7.171875 23.046875 -8.015625 C 24.015625 -8.867188 24.820312 -9.953125 25.46875 -11.265625 C 26.125 -12.585938 26.453125 -14.144531 26.453125 -15.9375 L 26.453125 -27.546875 C 26.453125 -28.515625 26.734375 -29.320312 27.296875 -29.96875 C 27.867188 -30.625 28.722656 -30.953125 29.859375 -30.953125 Z M 29.859375 -30.953125 "/></g></g></g><g fill="#ffffff" fill-opacity="1"><g transform="translate(154.743725, 208.885858)"><g><path d="M 28.34375 -39.34375 C 29.1875 -39.34375 29.984375 -39.097656 30.734375 -38.609375 C 31.484375 -38.128906 31.859375 -37.363281 31.859375 -36.3125 L 31.859375 -3.09375 C 31.859375 -1.03125 30.6875 0 28.34375 0 C 26.226562 0 25.132812 -0.972656 25.0625 -2.921875 C 23.757812 -1.785156 22.296875 -0.921875 20.671875 -0.328125 C 19.054688 0.253906 17.515625 0.546875 16.046875 0.546875 C 13.015625 0.546875 10.390625 -0.140625 8.171875 -1.515625 C 5.960938 -2.898438 4.269531 -4.828125 3.09375 -7.296875 C 1.925781 -9.765625 1.34375 -12.601562 1.34375 -15.8125 C 1.34375 -18.894531 1.96875 -21.609375 3.21875 -23.953125 C 4.476562 -26.304688 6.234375 -28.160156 8.484375 -29.515625 C 10.734375 -30.878906 13.335938 -31.5625 16.296875 -31.5625 C 17.628906 -31.5625 19.066406 -31.296875 20.609375 -30.765625 C 22.148438 -30.242188 23.59375 -29.457031 24.9375 -28.40625 L 24.9375 -36.3125 C 24.9375 -37.363281 25.289062 -38.128906 26 -38.609375 C 26.707031 -39.097656 27.488281 -39.34375 28.34375 -39.34375 Z M 16.234375 -5.59375 C 18.265625 -5.59375 20.097656 -6.046875 21.734375 -6.953125 C 23.378906 -7.867188 24.488281 -9.203125 25.0625 -10.953125 L 25 -20.3125 C 24.300781 -21.96875 23.171875 -23.234375 21.609375 -24.109375 C 20.054688 -24.984375 18.445312 -25.421875 16.78125 -25.421875 C 14.226562 -25.421875 12.171875 -24.5 10.609375 -22.65625 C 9.046875 -20.8125 8.265625 -18.507812 8.265625 -15.75 C 8.265625 -12.789062 8.992188 -10.359375 10.453125 -8.453125 C 11.921875 -6.546875 13.847656 -5.59375 16.234375 -5.59375 Z M 16.234375 -5.59375 "/></g></g></g><g fill="#ffffff" fill-opacity="1"><g transform="translate(189.947171, 208.885858)"><g><path d="M 28.34375 -39.34375 C 29.1875 -39.34375 29.984375 -39.097656 30.734375 -38.609375 C 31.484375 -38.128906 31.859375 -37.363281 31.859375 -36.3125 L 31.859375 -3.09375 C 31.859375 -1.03125 30.6875 0 28.34375 0 C 26.226562 0 25.132812 -0.972656 25.0625 -2.921875 C 23.757812 -1.785156 22.296875 -0.921875 20.671875 -0.328125 C 19.054688 0.253906 17.515625 0.546875 16.046875 0.546875 C 13.015625 0.546875 10.390625 -0.140625 8.171875 -1.515625 C 5.960938 -2.898438 4.269531 -4.828125 3.09375 -7.296875 C 1.925781 -9.765625 1.34375 -12.601562 1.34375 -15.8125 C 1.34375 -18.894531 1.96875 -21.609375 3.21875 -23.953125 C 4.476562 -26.304688 6.234375 -28.160156 8.484375 -29.515625 C 10.734375 -30.878906 13.335938 -31.5625 16.296875 -31.5625 C 17.628906 -31.5625 19.066406 -31.296875 20.609375 -30.765625 C 22.148438 -30.242188 23.59375 -29.457031 24.9375 -28.40625 L 24.9375 -36.3125 C 24.9375 -37.363281 25.289062 -38.128906 26 -38.609375 C 26.707031 -39.097656 27.488281 -39.34375 28.34375 -39.34375 Z M 16.234375 -5.59375 C 18.265625 -5.59375 20.097656 -6.046875 21.734375 -6.953125 C 23.378906 -7.867188 24.488281 -9.203125 25.0625 -10.953125 L 25 -20.3125 C 24.300781 -21.96875 23.171875 -23.234375 21.609375 -24.109375 C 20.054688 -24.984375 18.445312 -25.421875 16.78125 -25.421875 C 14.226562 -25.421875 12.171875 -24.5 10.609375 -22.65625 C 9.046875 -20.8125 8.265625 -18.507812 8.265625 -15.75 C 8.265625 -12.789062 8.992188 -10.359375 10.453125 -8.453125 C 11.921875 -6.546875 13.847656 -5.59375 16.234375 -5.59375 Z M 16.234375 -5.59375 "/></g></g></g><g fill="#ffffff" fill-opacity="1"><g transform="translate(225.150618, 208.885858)"><g><path d="M 28.34375 -30.953125 C 29.394531 -30.953125 30.296875 -30.492188 31.046875 -29.578125 C 31.796875 -28.671875 31.945312 -27.609375 31.5 -26.390625 L 13.75 8.453125 C 13.34375 9.222656 12.820312 9.832031 12.1875 10.28125 C 11.5625 10.726562 10.90625 10.953125 10.21875 10.953125 C 9.53125 10.953125 8.890625 10.71875 8.296875 10.25 C 7.710938 9.78125 7.304688 9.179688 7.078125 8.453125 C 6.859375 7.722656 6.953125 6.953125 7.359375 6.140625 L 11.984375 -2.984375 L 0 -26.15625 C -0.363281 -26.957031 -0.410156 -27.722656 -0.140625 -28.453125 C 0.117188 -29.191406 0.550781 -29.789062 1.15625 -30.25 C 1.757812 -30.71875 2.425781 -30.953125 3.15625 -30.953125 C 3.8125 -30.953125 4.441406 -30.75 5.046875 -30.34375 C 5.648438 -29.9375 6.097656 -29.410156 6.390625 -28.765625 L 15.75 -10.453125 L 25.109375 -28.828125 C 25.398438 -29.472656 25.828125 -29.988281 26.390625 -30.375 C 26.960938 -30.757812 27.613281 -30.953125 28.34375 -30.953125 Z M 28.34375 -30.953125 "/></g></g></g></svg>